<svg id="svg" version="1.1" xmlns="http://www.w3.org/2000/svg" xmlns:xlink="http://www.w3.org/1999/xlink" width="400" height="400" viewBox="0, 0, 400,400"><g id="svgg"><path id="path0" d="M96.000 10.800 C 95.670 11.013,95.059 11.191,94.642 11.194 C 93.771 11.201,90.402 13.228,90.401 13.746 C 90.400 13.936,89.680 14.722,88.800 15.494 C 87.920 16.265,87.200 17.235,87.200 17.648 C 87.200 18.062,87.020 18.400,86.800 18.400 C 86.542 18.400,86.400 22.867,86.400 31.000 L 86.400 43.600 76.700 43.602 C 70.895 43.604,66.358 43.781,65.400 44.044 C 63.891 44.459,59.635 46.347,59.200 46.795 C 59.090 46.909,58.505 47.256,57.900 47.568 C 57.295 47.880,56.800 48.285,56.800 48.468 C 56.800 48.650,56.544 48.800,56.231 48.800 C 55.918 48.800,54.793 49.832,53.731 51.094 C 52.669 52.355,51.496 53.660,51.126 53.994 C 50.183 54.841,48.800 57.468,48.800 58.412 C 48.800 58.845,48.620 59.200,48.400 59.200 C 47.845 59.200,47.845 370.257,48.400 370.600 C 48.620 370.736,48.800 371.163,48.800 371.549 C 48.800 372.501,50.573 376.114,51.362 376.769 C 51.713 377.060,52.000 377.506,52.000 377.761 C 52.000 378.015,52.360 378.483,52.800 378.800 C 53.240 379.117,53.600 379.611,53.600 379.897 C 53.600 380.537,57.807 384.800,58.439 384.800 C 58.689 384.800,59.368 385.317,59.947 385.950 C 61.255 387.379,63.908 388.758,67.628 389.945 C 69.787 390.633,335.249 390.583,337.200 389.894 C 341.348 388.429,346.060 384.740,347.607 381.748 C 347.933 381.116,348.695 380.091,349.300 379.469 C 349.905 378.847,350.400 377.992,350.400 377.569 C 350.400 377.146,350.580 376.800,350.800 376.800 C 351.020 376.800,351.200 376.260,351.200 375.600 C 351.200 374.940,351.380 374.400,351.600 374.400 C 351.820 374.400,352.000 373.781,352.000 373.024 C 352.000 372.267,352.180 371.536,352.400 371.400 C 352.666 371.236,352.800 318.596,352.800 214.776 C 352.800 110.792,352.666 58.400,352.400 58.400 C 352.180 58.400,352.000 57.860,352.000 57.200 C 352.000 56.540,351.820 56.000,351.600 56.000 C 351.380 56.000,351.200 55.661,351.200 55.246 C 351.200 53.429,347.594 49.038,344.400 46.967 C 343.410 46.325,342.540 45.665,342.467 45.500 C 342.393 45.335,342.106 45.200,341.828 45.200 C 341.550 45.200,340.710 44.885,339.961 44.500 C 338.793 43.899,337.171 43.782,328.500 43.675 L 318.400 43.550 318.400 31.387 C 318.400 17.637,318.512 18.201,315.053 14.591 C 309.777 9.085,302.270 8.988,296.678 14.355 C 293.583 17.325,293.600 17.233,293.600 31.249 L 293.600 43.600 286.800 43.600 L 280.000 43.600 279.991 31.500 C 279.983 20.107,279.937 19.342,279.200 18.400 C 278.770 17.850,278.414 17.212,278.409 16.983 C 278.354 14.426,271.500 10.407,267.200 10.410 C 263.480 10.413,256.800 14.003,256.800 15.999 C 256.800 16.220,256.620 16.400,256.400 16.400 C 256.180 16.400,256.000 16.850,256.000 17.400 C 256.000 17.950,255.820 18.400,255.600 18.400 C 255.342 18.400,255.200 22.867,255.200 31.000 L 255.200 43.600 202.400 43.600 L 149.600 43.600 149.600 31.000 C 149.600 22.867,149.458 18.400,149.200 18.400 C 148.980 18.400,148.800 18.052,148.800 17.626 C 148.800 15.927,144.035 11.937,140.851 10.971 C 135.306 9.288,127.322 12.805,125.799 17.602 C 125.660 18.041,125.378 18.400,125.173 18.400 C 124.950 18.400,124.800 23.474,124.800 31.000 L 124.800 43.600 118.000 43.600 L 111.200 43.600 111.200 31.000 C 111.200 22.867,111.058 18.400,110.800 18.400 C 110.580 18.400,110.400 18.072,110.400 17.671 C 110.400 16.909,106.768 12.990,105.206 12.066 C 102.775 10.629,97.407 9.891,96.000 10.800 M87.520 59.680 C 87.868 60.028,88.000 62.968,88.000 70.395 C 88.000 79.824,88.063 80.754,88.796 82.192 C 90.291 85.124,93.406 87.600,95.600 87.600 C 95.986 87.600,96.526 87.870,96.800 88.200 C 97.435 88.966,99.958 88.958,100.976 88.187 C 101.404 87.864,102.081 87.600,102.482 87.600 C 103.508 87.600,104.728 86.854,106.729 85.001 C 109.644 82.303,109.720 81.949,109.974 70.000 L 110.200 59.400 117.748 59.291 C 122.977 59.215,125.466 59.323,125.848 59.640 C 126.291 60.007,126.400 62.119,126.400 70.323 C 126.400 81.578,126.571 82.503,129.099 84.886 C 130.372 86.086,132.975 87.600,133.766 87.600 C 134.065 87.600,134.824 87.869,135.454 88.198 C 136.896 88.949,138.374 88.945,139.376 88.187 C 139.804 87.864,140.481 87.600,140.882 87.600 C 142.535 87.600,146.297 84.411,147.606 81.898 C 148.338 80.494,148.400 79.570,148.400 70.030 C 148.400 60.966,148.478 59.656,149.033 59.443 C 149.860 59.125,254.940 59.125,255.767 59.443 C 256.322 59.656,256.400 60.982,256.400 70.205 C 256.400 80.339,256.433 80.786,257.297 82.406 C 258.527 84.709,262.233 87.600,263.957 87.600 C 264.323 87.600,265.034 87.889,265.538 88.241 C 266.503 88.917,267.612 88.852,270.000 87.980 C 277.463 85.253,278.000 84.084,278.000 70.580 C 278.000 61.911,278.090 60.367,278.629 59.829 C 279.441 59.016,293.523 58.883,294.320 59.680 C 294.669 60.029,294.800 62.988,294.800 70.488 L 294.800 80.816 295.829 82.445 C 297.465 85.038,300.710 87.600,302.357 87.600 C 302.723 87.600,303.434 87.889,303.938 88.241 C 304.903 88.917,306.012 88.852,308.400 87.980 C 315.893 85.242,316.342 84.270,316.488 70.485 C 316.582 61.658,316.696 59.909,317.200 59.591 C 318.238 58.936,329.319 59.103,330.224 59.787 C 330.651 60.110,331.827 60.380,332.838 60.387 C 335.010 60.402,335.768 61.078,336.220 63.400 C 336.703 65.882,336.882 363.678,336.401 364.159 C 336.180 364.380,336.000 365.606,336.000 366.885 C 336.000 368.164,335.775 369.613,335.500 370.105 C 334.532 371.838,332.638 373.600,331.745 373.600 C 331.251 373.600,330.736 373.780,330.600 374.000 C 330.257 374.555,74.543 374.555,74.200 374.000 C 74.064 373.780,73.284 373.600,72.466 373.600 C 70.174 373.600,64.800 367.872,64.800 365.429 C 64.800 364.889,64.620 364.336,64.400 364.200 C 63.681 363.755,63.864 65.995,64.585 64.551 C 65.910 61.894,68.415 60.400,71.546 60.400 C 73.152 60.400,74.060 60.209,74.400 59.800 C 75.050 59.017,86.750 58.910,87.520 59.680 M79.600 112.620 C 77.821 113.377,76.218 115.712,76.770 116.743 C 77.126 117.410,78.376 122.420,82.221 138.600 C 84.066 146.365,85.268 151.505,86.569 157.200 C 87.147 159.730,87.781 162.340,87.978 163.000 C 88.175 163.660,88.910 166.630,89.612 169.600 C 90.315 172.570,91.694 178.330,92.678 182.400 C 93.662 186.470,95.075 192.500,95.818 195.800 C 96.561 199.100,98.262 206.300,99.599 211.800 C 100.936 217.300,102.184 222.520,102.374 223.400 C 102.564 224.280,103.256 227.160,103.912 229.800 C 104.569 232.440,105.675 237.030,106.371 240.000 C 110.429 257.327,110.751 258.682,114.205 273.000 C 115.214 277.180,116.380 282.040,116.798 283.800 C 117.215 285.560,118.094 289.250,118.750 292.000 C 119.407 294.750,120.323 298.710,120.786 300.800 C 121.249 302.890,121.793 305.230,121.995 306.000 C 122.198 306.770,123.013 310.100,123.807 313.400 C 128.352 332.288,125.321 330.000,145.800 330.000 C 166.079 330.000,163.443 331.741,167.601 315.600 C 168.309 312.850,169.218 309.430,169.620 308.000 C 170.022 306.570,171.281 301.890,172.419 297.600 C 173.556 293.310,175.162 287.280,175.987 284.200 C 176.813 281.120,178.250 275.720,179.182 272.200 C 180.114 268.680,181.502 263.460,182.267 260.600 C 183.032 257.740,183.810 254.770,183.997 254.000 C 184.530 251.800,187.122 242.149,188.186 238.400 C 188.717 236.530,189.815 232.480,190.626 229.400 C 191.437 226.320,192.626 221.820,193.270 219.400 C 193.914 216.980,195.048 212.660,195.791 209.800 C 196.533 206.940,197.538 203.160,198.023 201.400 C 198.507 199.640,198.990 197.806,199.094 197.324 C 199.199 196.842,199.632 196.133,200.056 195.749 C 201.635 194.321,202.181 195.613,205.574 208.800 C 206.451 212.210,207.722 217.070,208.398 219.600 C 209.073 222.130,210.149 226.180,210.788 228.600 C 212.007 233.215,212.889 236.492,214.610 242.800 C 215.181 244.890,216.015 247.950,216.465 249.600 C 216.914 251.250,217.430 253.230,217.610 254.000 C 218.254 256.752,223.529 276.539,227.048 289.400 C 228.071 293.140,229.585 298.810,230.412 302.000 C 231.239 305.190,232.397 309.600,232.987 311.800 C 233.576 314.000,234.771 318.488,235.642 321.774 C 238.018 330.739,236.196 330.000,255.921 330.000 C 275.130 330.000,273.634 330.495,275.318 323.587 C 275.934 321.064,276.990 316.840,277.666 314.200 C 278.343 311.560,279.039 308.680,279.215 307.800 C 279.632 305.706,281.642 296.958,282.983 291.400 C 283.567 288.980,284.386 285.560,284.803 283.800 C 285.221 282.040,286.460 276.910,287.558 272.400 C 288.656 267.890,290.018 262.220,290.585 259.800 C 294.341 243.771,295.924 237.098,297.610 230.200 C 298.308 227.340,299.033 224.370,299.220 223.600 C 299.408 222.830,299.744 221.349,299.967 220.309 C 300.190 219.269,301.175 215.129,302.157 211.109 C 303.138 207.089,304.506 201.370,305.197 198.400 C 307.432 188.787,310.767 174.745,312.227 168.800 C 313.010 165.610,313.884 162.010,314.169 160.800 C 314.454 159.590,315.366 155.720,316.195 152.200 C 317.024 148.680,317.847 145.170,318.024 144.400 C 318.200 143.630,318.600 141.920,318.913 140.600 C 319.225 139.280,320.240 134.960,321.167 131.000 C 323.355 121.661,324.413 117.542,324.816 116.802 C 325.395 115.739,323.657 113.288,321.830 112.590 C 319.151 111.568,284.262 111.887,282.697 112.948 C 281.471 113.779,281.319 114.234,279.008 124.000 C 276.464 134.748,275.195 140.009,273.555 146.600 C 272.680 150.120,271.533 154.980,271.008 157.400 C 269.992 162.081,267.919 170.811,263.742 188.000 C 262.326 193.830,260.989 199.410,260.772 200.400 C 260.555 201.390,259.495 205.890,258.417 210.400 C 257.338 214.910,255.792 221.480,254.980 225.000 C 253.429 231.729,253.156 232.400,251.965 232.400 C 251.118 232.400,250.586 231.554,250.048 229.352 C 249.840 228.498,249.362 226.720,248.986 225.400 C 248.088 222.248,244.434 208.593,244.009 206.800 C 243.827 206.030,243.377 204.320,243.010 203.000 C 242.642 201.680,241.801 198.530,241.140 196.000 C 239.515 189.783,239.046 188.041,237.805 183.600 C 237.221 181.510,236.323 178.180,235.809 176.200 C 235.296 174.220,234.387 170.800,233.789 168.600 C 233.190 166.400,231.739 160.910,230.562 156.400 C 229.386 151.890,228.046 146.850,227.585 145.200 C 227.124 143.550,226.399 140.895,225.973 139.300 C 225.548 137.705,224.823 135.005,224.363 133.300 C 223.902 131.595,222.627 126.780,221.528 122.600 C 218.490 111.038,220.372 112.000,200.800 112.000 C 181.348 112.000,183.014 111.217,180.385 121.600 C 179.466 125.230,178.484 128.920,178.202 129.800 C 177.919 130.680,177.106 133.650,176.395 136.400 C 175.683 139.150,174.324 144.190,173.374 147.600 C 172.424 151.010,170.914 156.680,170.018 160.200 C 169.121 163.720,168.116 167.590,167.784 168.800 C 167.452 170.010,166.658 172.980,166.019 175.400 C 165.379 177.820,164.506 181.060,164.078 182.600 C 162.878 186.914,161.342 192.611,160.250 196.800 C 159.704 198.890,158.958 201.680,158.591 203.000 C 158.223 204.320,157.775 206.030,157.594 206.800 C 156.578 211.132,152.762 225.202,151.465 229.400 C 149.901 234.464,148.606 233.652,147.000 226.600 C 146.399 223.960,144.961 217.840,143.806 213.000 C 142.650 208.160,141.400 202.850,141.027 201.200 C 140.654 199.550,139.465 194.600,138.385 190.200 C 137.304 185.800,135.807 179.590,135.057 176.400 C 134.308 173.210,132.954 167.450,132.049 163.600 C 131.144 159.750,130.124 155.340,129.782 153.800 C 129.124 150.839,127.444 143.953,126.805 141.600 C 126.596 140.830,126.050 138.580,125.592 136.600 C 124.130 130.282,121.136 117.871,120.561 115.748 C 119.558 112.041,120.558 112.213,99.400 112.113 C 83.867 112.039,80.782 112.118,79.600 112.620 M113.759 120.875 C 114.030 121.247,114.833 124.037,115.543 127.075 C 116.913 132.940,117.173 134.003,118.161 137.800 C 118.504 139.120,119.426 143.080,120.210 146.600 C 120.993 150.120,122.445 156.330,123.437 160.400 C 127.162 175.685,130.704 190.463,131.971 196.000 C 132.449 198.090,133.444 202.320,134.183 205.400 C 134.921 208.480,136.013 213.160,136.610 215.800 C 137.206 218.440,138.015 221.770,138.407 223.200 C 138.799 224.630,139.689 228.320,140.385 231.400 C 141.531 236.474,142.159 239.082,143.226 243.200 C 143.426 243.970,144.049 246.490,144.612 248.800 C 145.738 253.420,146.330 254.309,148.517 254.664 C 151.381 255.129,153.277 253.527,154.037 250.000 C 154.203 249.230,154.969 246.170,155.739 243.200 C 157.064 238.089,157.533 236.338,159.035 230.900 C 159.385 229.635,160.103 226.890,160.632 224.800 C 161.162 222.710,162.053 219.380,162.614 217.400 C 163.175 215.420,164.091 212.090,164.650 210.000 C 165.209 207.910,166.296 203.860,167.065 201.000 C 167.835 198.140,168.610 195.170,168.789 194.400 C 169.073 193.180,171.760 183.099,174.360 173.500 C 174.822 171.795,175.548 169.095,175.973 167.500 C 176.399 165.905,177.119 163.250,177.573 161.600 C 178.027 159.950,179.401 154.730,180.627 150.000 C 181.852 145.270,183.211 140.140,183.647 138.600 C 184.082 137.060,185.041 133.460,185.777 130.600 C 188.809 118.829,187.150 120.000,200.800 120.000 C 214.450 120.000,212.791 118.829,215.823 130.600 C 216.559 133.460,217.518 137.060,217.953 138.600 C 218.388 140.140,219.667 145.000,220.796 149.400 C 221.924 153.800,223.357 159.200,223.980 161.400 C 224.603 163.600,225.687 167.650,226.389 170.400 C 227.091 173.150,227.831 175.850,228.033 176.400 C 228.235 176.950,229.313 180.910,230.428 185.200 C 231.543 189.490,233.006 195.070,233.679 197.600 C 234.351 200.130,235.590 204.810,236.431 208.000 C 237.272 211.190,238.696 216.410,239.596 219.600 C 240.496 222.790,241.384 226.120,241.570 227.000 C 241.756 227.880,242.199 229.635,242.554 230.900 C 244.010 236.083,246.190 244.333,247.638 250.142 C 248.535 253.738,250.211 255.130,253.083 254.664 C 255.318 254.301,255.936 253.375,257.018 248.770 C 257.556 246.476,258.163 243.970,258.367 243.200 C 259.355 239.460,260.061 236.537,261.216 231.400 C 261.908 228.320,262.734 224.900,263.050 223.800 C 263.366 222.700,264.346 218.650,265.229 214.800 C 266.112 210.950,267.269 206.000,267.799 203.800 C 268.330 201.600,269.242 197.730,269.825 195.200 C 270.409 192.670,271.770 186.910,272.851 182.400 C 273.932 177.890,275.180 172.670,275.625 170.800 C 276.070 168.930,276.603 166.770,276.809 166.000 C 277.408 163.759,279.823 153.663,281.832 145.000 C 287.806 119.236,287.352 120.874,288.650 120.381 C 290.749 119.583,313.796 119.907,314.836 120.749 L 315.762 121.498 313.650 130.049 C 312.488 134.752,311.290 139.680,310.987 141.000 C 310.684 142.320,309.880 145.740,309.202 148.600 C 308.524 151.460,307.629 155.240,307.215 157.000 C 305.069 166.115,301.298 181.924,299.583 189.000 C 298.516 193.400,297.166 199.070,296.582 201.600 C 294.283 211.557,293.560 214.655,293.219 216.000 C 291.601 222.377,287.941 237.697,283.948 254.800 C 283.306 257.550,282.522 260.790,282.206 262.000 C 281.890 263.210,280.981 267.080,280.186 270.600 C 279.392 274.120,278.508 277.810,278.223 278.800 C 277.938 279.790,277.506 281.500,277.262 282.600 C 276.360 286.685,275.163 291.843,274.803 293.200 C 274.268 295.219,273.233 299.422,272.587 302.200 C 271.421 307.213,269.535 315.499,269.005 317.939 C 268.072 322.235,268.850 322.000,255.587 322.000 C 246.847 322.000,243.998 321.880,243.680 321.497 C 243.451 321.220,242.262 317.125,241.040 312.397 C 239.137 305.042,236.692 295.901,234.566 288.200 C 232.779 281.726,231.266 276.044,231.053 275.000 C 230.737 273.458,228.578 265.341,226.558 258.100 C 226.205 256.835,225.588 254.540,225.187 253.000 C 224.786 251.460,224.177 249.210,223.834 248.000 C 223.491 246.790,222.409 242.740,221.430 239.000 C 220.450 235.260,219.353 231.120,218.992 229.800 C 218.631 228.480,217.823 225.420,217.197 223.000 C 215.183 215.218,213.655 209.475,212.779 206.400 C 212.309 204.750,211.487 201.690,210.952 199.600 C 210.416 197.510,209.357 193.550,208.597 190.800 C 207.837 188.050,206.593 183.383,205.833 180.429 C 204.034 173.440,202.601 171.604,199.741 172.623 C 197.655 173.366,197.068 175.033,191.935 194.800 C 191.678 195.790,190.675 199.480,189.705 203.000 C 188.736 206.520,187.789 210.030,187.602 210.800 C 187.080 212.948,184.539 222.717,183.831 225.300 C 182.477 230.239,181.888 232.441,180.170 239.000 C 178.566 245.125,176.630 252.326,174.955 258.400 C 173.564 263.442,173.065 265.325,171.404 271.800 C 170.445 275.540,169.265 280.040,168.783 281.800 C 168.301 283.560,167.766 285.540,167.595 286.200 C 166.300 291.195,164.149 299.161,162.574 304.800 C 162.236 306.010,161.145 310.148,160.150 313.995 C 159.154 317.842,158.152 321.217,157.921 321.495 C 157.179 322.389,134.709 322.207,133.898 321.300 C 133.305 320.636,131.780 314.652,129.539 304.200 C 129.303 303.100,128.884 301.390,128.608 300.400 C 128.331 299.410,127.890 297.700,127.627 296.600 C 127.365 295.500,126.987 293.970,126.787 293.200 C 126.426 291.802,125.173 286.383,124.338 282.600 C 124.094 281.500,123.662 279.790,123.377 278.800 C 123.092 277.810,122.208 274.120,121.414 270.600 C 120.619 267.080,119.714 263.210,119.402 262.000 C 118.602 258.895,117.453 254.074,115.638 246.200 C 113.937 238.824,110.293 223.541,109.391 220.000 C 108.467 216.376,106.537 208.163,105.207 202.200 C 104.520 199.120,103.800 196.060,103.606 195.400 C 103.413 194.740,102.504 191.050,101.587 187.200 C 100.671 183.350,99.051 176.600,97.989 172.200 C 96.927 167.800,95.215 160.600,94.185 156.200 C 93.155 151.800,91.785 145.950,91.141 143.200 C 90.497 140.450,89.044 134.440,87.911 129.843 L 85.852 121.487 86.790 120.728 C 88.144 119.632,112.949 119.767,113.759 120.875 " stroke="none" fill="#090807" fill-rule="evenodd"></path><path id="path1" d="M71.749 60.789 C 69.000 61.103,67.091 62.054,65.842 63.729 L 65.000 64.859 64.898 214.210 L 64.797 363.562 65.645 365.881 C 66.780 368.982,70.332 372.499,73.093 373.254 C 75.681 373.962,327.290 374.285,329.800 373.584 C 333.575 372.529,335.003 370.713,335.722 366.052 C 336.256 362.592,336.304 66.569,335.771 64.042 C 335.105 60.883,334.434 60.651,325.424 60.466 L 317.672 60.307 317.524 70.453 C 317.359 81.693,317.259 82.204,314.658 85.083 C 309.089 91.247,299.451 90.021,295.145 82.600 C 294.252 81.060,294.212 80.616,294.074 70.700 L 293.930 60.400 286.596 60.400 L 279.261 60.400 279.130 70.500 C 278.984 81.855,278.896 82.238,275.664 85.534 C 272.996 88.257,265.990 90.402,265.000 88.800 C 264.864 88.580,264.431 88.400,264.038 88.400 C 261.997 88.400,258.180 85.397,256.666 82.600 C 255.853 81.097,255.792 80.374,255.675 70.700 L 255.551 60.400 202.175 60.400 L 148.800 60.400 148.800 70.551 C 148.800 81.780,148.723 82.214,146.244 85.043 C 143.670 87.979,136.064 90.521,135.000 88.800 C 134.864 88.580,134.396 88.400,133.960 88.400 C 131.781 88.400,128.009 85.247,126.442 82.116 C 125.653 80.538,125.600 79.800,125.600 70.416 L 125.600 60.400 118.000 60.400 L 110.400 60.400 110.400 70.616 C 110.400 82.105,110.338 82.398,107.264 85.534 C 101.489 91.426,91.841 89.711,88.042 82.116 C 87.253 80.538,87.200 79.800,87.200 70.416 L 87.200 60.400 80.700 60.455 C 77.125 60.485,73.097 60.635,71.749 60.789 M119.116 111.562 C 120.786 112.419,121.674 113.762,122.318 116.400 C 122.773 118.268,124.172 124.214,124.811 127.000 C 125.274 129.020,128.685 143.324,131.200 153.800 C 132.257 158.200,133.779 164.590,134.584 168.000 C 136.021 174.098,138.142 183.046,140.436 192.700 C 142.334 200.690,143.926 207.312,145.989 215.800 C 147.059 220.200,148.154 224.820,148.423 226.068 C 149.461 230.874,149.852 230.450,151.991 222.200 C 153.656 215.775,157.715 200.632,159.173 195.400 C 160.097 192.085,161.512 186.766,163.589 178.800 C 165.966 169.685,168.696 159.451,170.206 154.000 C 171.667 148.727,174.226 139.163,174.810 136.800 C 175.000 136.030,175.689 133.420,176.341 131.000 C 176.994 128.580,178.182 124.080,178.981 121.000 C 181.831 110.026,180.176 110.800,200.800 110.800 C 221.424 110.800,219.769 110.026,222.619 121.000 C 223.418 124.080,224.606 128.580,225.259 131.000 C 225.911 133.420,226.600 136.030,226.790 136.800 C 227.322 138.955,229.865 148.432,231.405 154.000 C 232.734 158.804,237.428 176.405,239.940 186.000 C 240.602 188.530,241.512 191.950,241.961 193.600 C 244.382 202.495,247.838 215.438,249.438 221.600 C 250.437 225.450,251.419 228.768,251.621 228.973 C 252.333 229.700,252.148 230.295,255.347 217.000 C 256.353 212.820,258.173 205.260,259.392 200.200 C 260.610 195.140,261.793 190.190,262.019 189.200 C 262.246 188.210,263.328 183.620,264.423 179.000 C 265.519 174.380,266.969 168.260,267.646 165.400 C 268.322 162.540,269.653 156.960,270.602 153.000 C 271.551 149.040,272.722 144.090,273.204 142.000 C 273.687 139.910,274.237 137.660,274.428 137.000 C 274.745 135.899,275.933 130.892,276.800 127.000 C 276.996 126.120,277.536 123.780,278.000 121.800 C 280.824 109.749,278.455 110.800,302.800 110.800 C 328.398 110.800,327.705 110.383,324.453 123.812 C 323.603 127.325,322.049 133.800,321.002 138.200 C 319.954 142.600,318.059 150.520,316.790 155.800 C 315.521 161.080,313.915 167.830,313.221 170.800 C 312.526 173.770,311.610 177.640,311.184 179.400 C 310.758 181.160,309.861 184.940,309.190 187.800 C 308.518 190.660,307.077 196.690,305.987 201.200 C 302.550 215.419,300.803 222.769,299.001 230.600 C 298.039 234.780,296.509 241.260,295.600 245.000 C 291.017 263.865,290.315 266.792,289.580 270.091 C 289.143 272.052,287.994 276.929,287.028 280.929 C 286.061 284.928,284.786 290.270,284.194 292.800 C 283.603 295.330,282.251 301.000,281.190 305.400 C 280.129 309.800,278.505 316.550,277.581 320.400 C 274.727 332.293,276.932 331.200,255.800 331.200 C 235.244 331.200,237.083 331.823,234.831 324.094 C 234.207 321.952,233.115 317.950,232.404 315.200 C 231.694 312.450,230.615 308.400,230.007 306.200 C 229.399 304.000,228.506 300.670,228.024 298.800 C 226.634 293.420,226.461 292.765,225.651 289.800 C 225.230 288.260,224.427 285.290,223.866 283.200 C 223.306 281.110,221.856 275.710,220.646 271.200 C 219.435 266.690,217.797 260.480,217.005 257.400 C 216.214 254.320,215.224 250.630,214.806 249.200 C 214.388 247.770,213.327 243.810,212.449 240.400 C 211.571 236.990,210.586 233.210,210.259 232.000 C 209.932 230.790,209.187 228.000,208.602 225.800 C 206.992 219.742,202.437 202.879,201.768 200.500 C 200.807 197.080,200.577 197.432,198.452 205.600 C 198.023 207.250,197.101 210.670,196.404 213.200 C 195.706 215.730,194.416 220.500,193.537 223.800 C 192.658 227.100,191.670 230.790,191.343 232.000 C 191.016 233.210,190.119 236.630,189.351 239.600 C 188.583 242.570,187.176 247.880,186.224 251.400 C 184.447 257.966,182.372 265.739,179.390 277.000 C 178.457 280.520,177.299 284.840,176.816 286.600 C 176.334 288.360,175.426 291.780,174.800 294.200 C 174.174 296.620,173.298 299.950,172.853 301.600 C 172.409 303.250,171.138 308.020,170.029 312.200 C 165.787 328.190,165.739 328.333,164.177 329.900 L 162.880 331.200 145.800 331.200 L 128.720 331.200 127.416 329.896 C 126.045 328.525,125.745 327.671,123.867 319.800 C 123.290 317.380,121.931 311.710,120.847 307.200 C 119.762 302.690,118.218 296.210,117.416 292.800 C 116.613 289.390,115.143 283.180,114.150 279.000 C 113.156 274.820,112.005 269.960,111.593 268.200 C 110.809 264.857,108.803 256.535,106.000 245.000 C 105.092 241.260,103.561 234.780,102.599 230.600 C 101.638 226.420,100.117 219.940,99.220 216.200 C 98.323 212.460,96.682 205.620,95.573 201.000 C 94.465 196.380,93.216 191.160,92.798 189.400 C 92.381 187.640,91.504 183.950,90.850 181.200 C 90.197 178.450,89.089 173.770,88.390 170.800 C 87.690 167.830,86.077 161.080,84.806 155.800 C 83.535 150.520,81.644 142.600,80.603 138.200 C 79.563 133.800,78.011 127.325,77.156 123.812 C 75.003 114.972,75.163 113.284,78.307 111.624 C 80.586 110.421,116.787 110.366,119.116 111.562 " stroke="none" fill="#faf28b" fill-rule="evenodd"></path><path id="path2" d="M88.052 121.737 C 87.720 122.137,87.813 123.131,88.418 125.637 C 88.865 127.487,89.394 129.720,89.593 130.600 C 90.017 132.468,90.893 136.133,93.417 146.600 C 94.425 150.780,95.871 156.810,96.630 160.000 C 97.390 163.190,98.269 166.880,98.585 168.200 C 98.900 169.520,99.433 171.770,99.767 173.200 C 100.385 175.839,102.233 183.592,106.200 200.200 C 109.834 215.409,111.950 224.315,113.235 229.800 C 114.404 234.795,115.349 238.754,117.961 249.600 C 119.686 256.763,122.203 267.363,125.656 282.000 C 126.305 284.750,127.355 289.160,127.990 291.800 C 129.304 297.264,131.056 304.620,132.849 312.200 C 133.526 315.060,134.287 318.120,134.540 319.000 L 135.000 320.600 145.887 320.706 L 156.774 320.813 157.355 318.706 C 157.675 317.548,158.420 314.800,159.011 312.600 C 159.602 310.400,160.430 307.340,160.851 305.800 C 161.272 304.260,161.783 302.370,161.986 301.600 C 162.190 300.830,163.620 295.430,165.165 289.600 C 166.709 283.770,168.545 276.840,169.243 274.200 C 169.941 271.560,170.858 268.140,171.282 266.600 C 171.705 265.060,172.565 261.820,173.193 259.400 C 173.821 256.980,174.620 253.965,174.968 252.700 C 175.979 249.020,176.732 246.197,178.409 239.800 C 179.274 236.500,180.446 232.090,181.014 230.000 C 183.859 219.535,186.605 209.271,187.812 204.600 C 188.550 201.740,189.423 198.410,189.752 197.200 C 190.081 195.990,191.084 192.210,191.981 188.800 C 195.374 175.912,196.034 173.835,197.100 172.709 C 199.272 170.414,202.323 170.414,204.505 172.709 C 205.544 173.803,206.224 175.863,208.822 185.800 C 209.455 188.220,210.340 191.550,210.789 193.200 C 211.239 194.850,212.422 199.350,213.420 203.200 C 214.417 207.050,215.589 211.460,216.023 213.000 C 217.136 216.941,217.735 219.155,220.029 227.800 C 221.942 235.008,222.615 237.551,225.029 246.700 C 226.125 250.852,226.625 252.707,228.025 257.800 C 228.509 259.560,229.043 261.630,229.212 262.400 C 229.381 263.170,229.873 265.060,230.304 266.600 C 231.324 270.243,236.863 290.953,238.808 298.400 C 240.831 306.141,243.037 314.390,244.239 318.706 L 244.826 320.813 255.713 320.706 L 266.600 320.600 267.064 319.000 C 267.319 318.120,268.256 314.340,269.147 310.600 C 270.038 306.860,271.411 301.100,272.197 297.800 C 272.983 294.500,273.901 290.630,274.237 289.200 C 274.573 287.770,275.365 284.440,275.998 281.800 C 276.631 279.160,277.803 274.210,278.603 270.800 C 280.260 263.734,281.700 257.716,284.199 247.400 C 285.159 243.440,286.417 238.130,286.996 235.600 C 287.576 233.070,288.744 228.120,289.592 224.600 C 290.441 221.080,291.708 215.770,292.409 212.800 C 293.110 209.830,294.545 203.800,295.598 199.400 C 297.592 191.069,299.790 181.842,301.412 175.000 C 304.049 163.873,305.285 158.705,308.588 145.000 C 309.330 141.920,310.312 137.780,310.770 135.800 C 311.228 133.820,311.768 131.570,311.970 130.800 C 313.435 125.230,313.956 122.229,313.542 121.731 C 313.195 121.312,310.628 121.200,301.360 121.200 L 289.618 121.200 289.058 122.100 C 288.750 122.595,288.107 124.710,287.629 126.800 C 285.821 134.697,284.806 138.977,281.413 153.000 C 280.243 157.840,278.719 164.230,278.028 167.200 C 276.053 175.685,275.942 176.141,275.605 177.200 C 275.429 177.750,275.065 179.280,274.795 180.600 C 274.525 181.920,273.975 184.350,273.572 186.000 C 272.635 189.841,269.569 202.679,267.983 209.400 C 267.308 212.260,266.234 216.760,265.596 219.400 C 264.958 222.040,264.060 225.820,263.600 227.800 C 263.140 229.780,262.242 233.560,261.603 236.200 C 260.964 238.840,259.884 243.430,259.204 246.400 C 257.101 255.582,254.598 258.050,249.730 255.740 C 247.399 254.634,247.193 254.097,242.992 238.200 C 242.237 235.340,241.278 231.740,240.863 230.200 C 239.828 226.363,237.755 218.583,236.545 214.000 C 235.993 211.910,235.296 209.300,234.996 208.200 C 234.054 204.751,229.990 189.570,228.973 185.700 C 227.274 179.237,225.945 174.244,225.540 172.800 C 225.324 172.030,224.993 170.770,224.805 170.000 C 224.294 167.903,221.775 158.469,220.213 152.800 C 219.456 150.050,218.287 145.730,217.617 143.200 C 216.946 140.670,216.015 137.160,215.548 135.400 C 215.081 133.640,214.181 130.373,213.549 128.140 C 212.917 125.907,212.400 123.730,212.400 123.302 C 212.400 121.297,211.703 121.178,200.576 121.293 L 190.230 121.400 189.741 122.400 C 189.471 122.950,188.858 124.930,188.377 126.800 C 187.897 128.670,187.342 130.740,187.144 131.400 C 186.946 132.060,185.882 136.020,184.780 140.200 C 183.678 144.380,182.159 150.050,181.403 152.800 C 180.647 155.550,179.583 159.510,179.038 161.600 C 178.120 165.123,176.780 170.151,176.000 173.000 C 174.942 176.865,173.057 184.003,172.779 185.200 C 172.600 185.970,172.277 187.230,172.062 188.000 C 171.847 188.770,170.654 193.180,169.411 197.800 C 168.168 202.420,166.903 207.100,166.601 208.200 C 166.298 209.300,165.413 212.630,164.634 215.600 C 163.855 218.570,162.853 222.350,162.407 224.000 C 161.961 225.650,160.857 229.790,159.953 233.200 C 159.049 236.610,158.089 240.210,157.820 241.200 C 157.550 242.190,156.742 245.188,156.024 247.862 C 154.121 254.945,152.522 256.790,148.729 256.281 C 145.174 255.804,144.337 254.534,142.569 246.931 C 141.810 243.669,140.660 238.840,140.013 236.200 C 139.365 233.560,138.458 229.780,137.996 227.800 C 136.732 222.373,136.193 220.094,134.214 211.800 C 131.101 198.755,128.791 189.119,128.029 186.000 C 127.626 184.350,127.075 181.920,126.805 180.600 C 126.535 179.280,126.171 177.750,125.995 177.200 C 125.652 176.125,125.488 175.446,123.578 167.200 C 122.890 164.230,121.544 158.560,120.586 154.600 C 119.629 150.640,118.376 145.420,117.803 143.000 C 117.229 140.580,116.329 136.800,115.802 134.600 C 115.275 132.400,114.452 128.890,113.973 126.800 C 113.494 124.710,112.850 122.595,112.542 122.100 L 111.982 121.200 100.240 121.200 C 90.903 121.200,88.407 121.310,88.052 121.737 " stroke="none" fill="#fafafa" fill-rule="evenodd"></path><path id="path3" d="M74.800 60.000 C 74.399 60.259,76.356 60.390,80.700 60.394 L 87.200 60.400 87.293 70.700 L 87.386 81.000 87.500 70.849 C 87.580 63.687,87.480 60.537,87.158 60.149 C 86.613 59.492,75.788 59.361,74.800 60.000 M110.480 60.080 C 110.132 60.428,110.000 63.347,110.000 70.700 C 110.000 82.066,110.001 82.059,107.057 85.124 C 103.807 88.506,99.474 89.562,95.220 88.007 C 94.028 87.571,92.965 87.301,92.859 87.407 C 92.753 87.513,92.744 87.600,92.839 87.600 C 92.934 87.600,93.996 87.960,95.200 88.400 C 100.613 90.378,106.857 87.776,109.600 82.400 C 110.338 80.953,110.400 80.041,110.400 70.616 L 110.400 60.400 118.000 60.400 L 125.600 60.400 125.617 70.500 C 125.632 79.680,125.703 80.728,126.400 82.000 C 126.822 82.770,127.168 83.220,127.169 83.000 C 127.170 82.780,126.914 82.150,126.600 81.600 C 126.148 80.809,126.025 78.533,126.014 70.733 C 126.006 65.306,125.891 60.581,125.757 60.233 C 125.443 59.414,111.288 59.272,110.480 60.080 M149.000 60.000 C 148.836 60.266,166.660 60.400,202.169 60.400 L 255.586 60.400 255.700 70.300 L 255.815 80.200 255.907 70.143 C 255.989 61.286,255.924 60.057,255.367 59.843 C 254.236 59.409,149.270 59.564,149.000 60.000 M278.880 60.080 C 278.529 60.431,278.413 63.354,278.447 70.980 C 278.473 76.711,278.632 80.860,278.800 80.200 C 278.968 79.540,279.127 74.815,279.153 69.700 L 279.200 60.400 286.593 60.400 L 293.986 60.400 294.100 69.900 L 294.215 79.400 294.308 69.743 C 294.389 61.251,294.324 60.056,293.767 59.843 C 292.520 59.364,279.387 59.573,278.880 60.080 M317.380 60.109 C 317.272 60.388,317.237 64.753,317.300 69.809 L 317.416 79.000 317.508 69.700 L 317.600 60.400 324.100 60.394 C 328.444 60.390,330.401 60.259,330.000 60.000 C 329.053 59.388,317.619 59.486,317.380 60.109 M69.300 60.812 C 68.805 61.011,68.400 61.281,68.400 61.411 C 68.400 61.541,68.612 61.516,68.871 61.356 C 69.130 61.196,70.435 60.940,71.771 60.787 L 74.200 60.509 72.200 60.480 C 71.100 60.464,69.795 60.613,69.300 60.812 M332.286 60.775 C 333.213 60.926,334.338 61.382,334.786 61.787 C 335.234 62.192,335.600 62.326,335.600 62.085 C 335.600 61.257,333.823 60.400,332.211 60.450 L 330.600 60.500 332.286 60.775 M66.204 62.796 C 65.574 63.454,65.135 64.042,65.229 64.103 C 65.323 64.164,65.970 63.626,66.666 62.907 C 67.362 62.188,67.801 61.600,67.641 61.600 C 67.481 61.600,66.834 62.138,66.204 62.796 M335.606 64.033 C 335.609 64.565,335.789 65.270,336.006 65.600 C 336.282 66.022,336.323 65.785,336.142 64.800 C 335.825 63.075,335.598 62.749,335.606 64.033 M64.667 65.067 C 64.296 65.437,64.329 363.909,64.700 364.138 C 64.865 364.240,65.000 296.931,65.000 214.562 C 65.000 132.193,64.985 64.800,64.967 64.800 C 64.948 64.800,64.813 64.920,64.667 65.067 M148.493 80.000 C 148.493 80.770,148.575 81.085,148.676 80.700 C 148.776 80.315,148.776 79.685,148.676 79.300 C 148.575 78.915,148.493 79.230,148.493 80.000 M256.018 80.916 C 255.937 82.351,260.396 87.602,261.691 87.599 C 261.971 87.598,261.660 87.260,261.000 86.849 C 259.382 85.841,257.862 84.133,256.863 82.200 C 256.408 81.320,256.027 80.742,256.018 80.916 M147.626 82.500 C 147.186 83.618,143.748 86.892,142.400 87.476 C 140.227 88.417,138.028 88.887,136.485 88.740 C 135.595 88.655,134.953 88.724,135.057 88.893 C 135.569 89.721,139.399 89.123,142.800 87.685 C 144.398 87.009,147.790 83.647,148.111 82.420 C 148.398 81.320,148.069 81.375,147.626 82.500 M316.053 82.445 C 315.573 83.687,314.147 85.313,312.422 86.584 C 311.665 87.143,311.227 87.600,311.450 87.600 C 312.663 87.600,317.300 82.366,316.657 81.723 C 316.528 81.595,316.256 81.919,316.053 82.445 M90.383 85.300 C 91.364 86.345,92.219 87.200,92.283 87.200 C 92.584 87.200,92.266 86.841,90.500 85.183 L 88.600 83.400 90.383 85.300 M128.600 85.134 C 130.284 86.959,132.679 88.423,133.884 88.366 C 134.355 88.343,134.250 88.225,133.577 88.021 C 131.830 87.491,130.667 86.768,128.800 85.053 L 127.001 83.400 128.600 85.134 M297.860 85.900 C 298.791 86.835,299.789 87.595,300.077 87.588 C 300.365 87.581,300.240 87.378,299.800 87.136 C 299.360 86.894,298.362 86.134,297.583 85.448 C 296.628 84.606,296.718 84.753,297.860 85.900 M274.094 86.412 C 273.375 87.065,272.938 87.600,273.122 87.600 C 273.305 87.600,274.061 87.060,274.800 86.400 C 275.539 85.740,275.977 85.205,275.772 85.212 C 275.567 85.218,274.812 85.758,274.094 86.412 M270.800 88.101 C 270.030 88.332,268.374 88.538,267.120 88.560 C 265.862 88.582,264.993 88.753,265.181 88.941 C 265.745 89.505,271.793 88.658,272.229 87.954 C 272.349 87.759,272.392 87.618,272.324 87.641 C 272.256 87.663,271.570 87.871,270.800 88.101 M303.738 88.894 C 303.992 89.056,304.920 89.188,305.800 89.188 C 306.680 89.188,307.608 89.056,307.862 88.894 C 308.116 88.732,307.188 88.600,305.800 88.600 C 304.412 88.600,303.484 88.732,303.738 88.894 M78.307 111.624 C 75.163 113.284,75.003 114.972,77.156 123.812 C 78.011 127.325,79.563 133.800,80.603 138.200 C 81.644 142.600,83.535 150.520,84.806 155.800 C 86.077 161.080,87.690 167.830,88.390 170.800 C 89.089 173.770,90.197 178.450,90.850 181.200 C 91.504 183.950,92.381 187.640,92.798 189.400 C 93.216 191.160,94.465 196.380,95.573 201.000 C 96.682 205.620,98.323 212.460,99.220 216.200 C 100.117 219.940,101.638 226.420,102.599 230.600 C 103.561 234.780,105.092 241.260,106.000 245.000 C 108.803 256.535,110.809 264.857,111.593 268.200 C 112.005 269.960,113.156 274.820,114.150 279.000 C 115.143 283.180,116.613 289.390,117.416 292.800 C 118.218 296.210,119.762 302.690,120.847 307.200 C 121.931 311.710,123.290 317.380,123.867 319.800 C 125.745 327.671,126.045 328.525,127.416 329.896 L 128.720 331.200 145.800 331.200 L 162.880 331.200 164.177 329.900 C 165.739 328.333,165.787 328.190,170.029 312.200 C 171.138 308.020,172.409 303.250,172.853 301.600 C 173.298 299.950,174.174 296.620,174.800 294.200 C 175.426 291.780,176.334 288.360,176.816 286.600 C 177.299 284.840,178.457 280.520,179.390 277.000 C 182.372 265.739,184.447 257.966,186.224 251.400 C 187.176 247.880,188.583 242.570,189.351 239.600 C 190.119 236.630,191.016 233.210,191.343 232.000 C 191.670 230.790,192.658 227.100,193.537 223.800 C 194.416 220.500,195.706 215.730,196.404 213.200 C 197.101 210.670,198.023 207.250,198.452 205.600 C 200.577 197.432,200.807 197.080,201.768 200.500 C 202.437 202.879,206.992 219.742,208.602 225.800 C 209.187 228.000,209.932 230.790,210.259 232.000 C 210.586 233.210,211.571 236.990,212.449 240.400 C 213.327 243.810,214.388 247.770,214.806 249.200 C 215.224 250.630,216.214 254.320,217.005 257.400 C 217.797 260.480,219.435 266.690,220.646 271.200 C 221.856 275.710,223.306 281.110,223.866 283.200 C 224.427 285.290,225.230 288.260,225.651 289.800 C 226.461 292.765,226.634 293.420,228.024 298.800 C 228.506 300.670,229.399 304.000,230.007 306.200 C 230.615 308.400,231.694 312.450,232.404 315.200 C 233.115 317.950,234.207 321.952,234.831 324.094 C 237.083 331.823,235.244 331.200,255.800 331.200 C 276.932 331.200,274.727 332.293,277.581 320.400 C 278.505 316.550,280.129 309.800,281.190 305.400 C 282.251 301.000,283.603 295.330,284.194 292.800 C 284.786 290.270,286.061 284.928,287.028 280.929 C 287.994 276.929,289.143 272.052,289.580 270.091 C 290.315 266.792,291.017 263.865,295.600 245.000 C 296.509 241.260,298.039 234.780,299.001 230.600 C 300.803 222.769,302.550 215.419,305.987 201.200 C 307.077 196.690,308.518 190.660,309.190 187.800 C 309.861 184.940,310.758 181.160,311.184 179.400 C 311.610 177.640,312.526 173.770,313.221 170.800 C 313.915 167.830,315.521 161.080,316.790 155.800 C 318.059 150.520,319.954 142.600,321.002 138.200 C 322.049 133.800,323.603 127.325,324.453 123.812 C 327.705 110.383,328.398 110.800,302.800 110.800 C 280.092 110.800,280.682 110.659,279.282 116.400 C 278.700 118.790,277.246 124.996,276.800 127.000 C 275.933 130.892,274.745 135.899,274.428 137.000 C 274.237 137.660,273.687 139.910,273.204 142.000 C 272.722 144.090,271.551 149.040,270.602 153.000 C 269.653 156.960,268.322 162.540,267.646 165.400 C 266.969 168.260,265.519 174.380,264.423 179.000 C 263.328 183.620,262.246 188.210,262.019 189.200 C 261.793 190.190,260.610 195.140,259.392 200.200 C 258.173 205.260,256.353 212.820,255.347 217.000 C 252.148 230.295,252.333 229.700,251.621 228.973 C 251.419 228.768,250.437 225.450,249.438 221.600 C 247.838 215.438,244.382 202.495,241.961 193.600 C 241.512 191.950,240.602 188.530,239.940 186.000 C 237.428 176.405,232.734 158.804,231.405 154.000 C 229.865 148.432,227.322 138.955,226.790 136.800 C 226.600 136.030,225.911 133.420,225.259 131.000 C 224.606 128.580,223.418 124.080,222.619 121.000 C 219.769 110.026,221.424 110.800,200.800 110.800 C 180.176 110.800,181.831 110.026,178.981 121.000 C 178.182 124.080,176.994 128.580,176.341 131.000 C 175.689 133.420,175.000 136.030,174.810 136.800 C 174.226 139.163,171.667 148.727,170.206 154.000 C 168.696 159.451,165.966 169.685,163.589 178.800 C 161.512 186.766,160.097 192.085,159.173 195.400 C 157.715 200.632,153.656 215.775,151.991 222.200 C 149.852 230.450,149.461 230.874,148.423 226.068 C 148.154 224.820,147.059 220.200,145.989 215.800 C 143.926 207.312,142.334 200.690,140.436 192.700 C 138.142 183.046,136.021 174.098,134.584 168.000 C 133.779 164.590,132.257 158.200,131.200 153.800 C 128.685 143.324,125.274 129.020,124.811 127.000 C 124.609 126.120,124.064 123.780,123.600 121.800 C 120.775 109.743,123.158 110.795,98.716 110.818 C 80.685 110.835,79.730 110.872,78.307 111.624 M119.241 112.515 C 120.821 113.578,121.162 114.464,122.812 121.792 C 123.457 124.656,124.165 127.630,124.385 128.400 C 124.605 129.170,125.316 132.050,125.965 134.800 C 126.614 137.550,127.957 143.220,128.951 147.400 C 129.944 151.580,131.325 157.430,132.020 160.400 C 132.715 163.370,134.238 169.760,135.406 174.600 C 138.980 189.417,140.724 196.768,141.972 202.270 C 142.629 205.169,144.060 211.199,145.151 215.670 C 146.241 220.142,147.529 225.465,148.012 227.500 C 149.419 233.433,149.829 232.997,152.608 222.600 C 153.607 218.860,155.309 212.560,156.389 208.600 C 157.469 204.640,158.831 199.510,159.415 197.200 C 159.999 194.890,161.167 190.480,162.010 187.400 C 162.853 184.320,165.099 175.950,167.000 168.800 C 168.901 161.650,171.325 152.560,172.387 148.600 C 173.448 144.640,174.972 138.880,175.774 135.800 C 176.575 132.720,177.391 129.750,177.587 129.200 C 177.783 128.650,178.697 125.230,179.619 121.600 C 182.378 110.726,180.528 111.600,200.800 111.600 C 221.123 111.600,219.217 110.671,222.148 122.000 C 223.145 125.850,224.686 131.700,225.574 135.000 C 226.461 138.300,228.170 144.690,229.371 149.200 C 231.962 158.928,237.225 178.637,238.665 184.000 C 239.226 186.090,240.016 188.970,240.421 190.400 C 240.825 191.830,241.717 195.250,242.403 198.000 C 243.090 200.750,244.429 205.790,245.379 209.200 C 246.329 212.610,247.962 218.640,249.008 222.600 C 251.751 232.986,252.178 233.443,253.588 227.500 C 254.071 225.465,255.336 220.200,256.400 215.800 C 257.463 211.400,258.818 205.730,259.410 203.200 C 261.679 193.501,264.543 181.457,266.590 173.000 C 267.762 168.160,269.198 162.130,269.781 159.600 C 270.858 154.923,272.788 146.821,276.593 131.000 C 277.757 126.160,279.110 120.490,279.600 118.400 C 281.321 111.055,279.454 111.603,302.720 111.601 C 323.408 111.600,323.065 111.563,324.768 113.956 C 325.574 115.087,325.897 117.570,325.314 118.153 C 324.956 118.511,324.343 120.777,322.813 127.400 C 322.152 130.260,321.069 134.850,320.405 137.600 C 319.741 140.350,318.651 144.940,317.982 147.800 C 317.313 150.660,315.791 157.050,314.599 162.000 C 313.408 166.950,311.237 176.040,309.774 182.200 C 308.312 188.360,306.072 197.720,304.796 203.000 C 303.520 208.280,302.351 213.230,302.198 214.000 C 302.045 214.770,300.859 219.810,299.562 225.200 C 292.839 253.142,290.110 264.601,287.177 277.200 C 286.077 281.930,284.820 287.150,284.386 288.800 C 283.515 292.106,280.168 306.277,277.395 318.400 C 274.314 331.870,276.178 330.800,255.800 330.800 C 235.892 330.800,237.440 331.467,234.924 321.802 C 233.725 317.200,231.739 309.783,227.584 294.400 C 226.900 291.870,225.469 286.470,224.402 282.400 C 223.336 278.330,222.165 273.920,221.800 272.600 C 221.436 271.280,220.359 267.230,219.409 263.600 C 218.458 259.970,216.921 254.210,215.993 250.800 C 212.886 239.379,210.457 230.241,209.189 225.200 C 208.498 222.450,207.507 218.760,206.988 217.000 C 206.468 215.240,205.232 210.650,204.239 206.800 C 200.790 193.420,200.827 193.425,197.588 205.960 C 196.701 209.392,195.442 214.090,194.790 216.400 C 193.640 220.477,191.110 230.032,187.376 244.400 C 186.375 248.250,185.127 252.840,184.602 254.600 C 184.077 256.360,182.911 260.680,182.012 264.200 C 181.112 267.720,180.102 271.590,179.766 272.800 C 179.430 274.010,178.253 278.420,177.150 282.600 C 176.047 286.780,174.997 290.740,174.817 291.400 C 174.636 292.060,173.914 294.760,173.212 297.400 C 172.511 300.040,171.151 305.080,170.190 308.600 C 169.230 312.120,167.782 317.610,166.973 320.800 C 164.245 331.552,165.838 330.800,145.800 330.800 C 125.422 330.800,127.286 331.870,124.205 318.400 C 121.909 308.364,118.409 293.547,116.410 285.400 C 115.546 281.880,114.293 276.660,113.626 273.800 C 110.422 260.071,107.032 245.845,102.378 226.600 C 101.314 222.200,99.999 216.620,99.455 214.200 C 98.477 209.847,96.375 201.058,92.139 183.600 C 90.937 178.650,89.704 173.419,89.399 171.975 C 89.093 170.531,87.863 165.311,86.665 160.375 C 84.605 151.884,83.828 148.628,80.558 134.800 C 77.189 120.553,76.688 118.578,76.354 118.220 C 75.767 117.590,75.955 115.240,76.683 114.130 C 78.377 111.544,77.859 111.603,98.841 111.601 L 117.882 111.600 119.241 112.515 M87.233 121.360 C 86.819 121.859,88.317 130.095,89.032 131.251 C 89.132 131.414,89.373 132.324,89.568 133.273 C 90.252 136.612,92.868 147.892,94.978 156.600 C 98.351 170.521,103.573 192.402,106.433 204.600 C 107.310 208.340,108.758 214.370,109.649 218.000 C 110.541 221.630,111.874 227.210,112.610 230.400 C 113.347 233.590,114.229 237.280,114.571 238.600 C 114.913 239.920,115.742 243.430,116.414 246.400 C 117.086 249.370,118.423 255.040,119.384 259.000 C 120.345 262.960,121.528 267.910,122.011 270.000 C 122.495 272.090,123.424 275.960,124.076 278.600 C 124.727 281.240,125.861 286.010,126.595 289.200 C 127.329 292.390,128.670 298.060,129.576 301.800 C 130.481 305.540,131.404 309.410,131.627 310.400 C 133.214 317.460,134.042 320.602,134.412 320.972 C 134.687 321.248,138.633 321.442,145.553 321.518 C 158.640 321.662,157.407 322.286,159.332 314.545 C 160.105 311.435,161.560 305.855,162.565 302.145 C 164.581 294.708,168.025 281.829,172.341 265.600 C 173.891 259.770,175.720 252.930,176.405 250.400 C 177.089 247.870,178.256 243.460,178.997 240.600 C 179.738 237.740,180.643 234.320,181.007 233.000 C 182.123 228.956,182.263 228.427,184.190 221.000 C 185.218 217.040,186.482 212.360,186.999 210.600 C 187.516 208.840,188.583 204.880,189.371 201.800 C 190.158 198.720,191.250 194.580,191.797 192.600 C 192.344 190.620,193.622 185.851,194.636 182.003 C 197.024 172.940,197.819 171.600,200.800 171.600 C 203.787 171.600,204.626 173.018,206.990 182.054 C 207.989 185.874,209.255 190.620,209.804 192.600 C 210.353 194.580,211.508 198.900,212.372 202.200 C 213.236 205.500,214.245 209.280,214.615 210.600 C 214.984 211.920,216.060 215.970,217.006 219.600 C 217.951 223.230,219.027 227.280,219.397 228.600 C 219.768 229.920,220.941 234.330,222.006 238.400 C 223.070 242.470,224.303 247.060,224.744 248.600 C 225.186 250.140,226.264 254.190,227.141 257.600 C 228.018 261.010,229.467 266.500,230.362 269.800 C 231.256 273.100,233.254 280.570,234.800 286.400 C 236.347 292.230,238.039 298.530,238.560 300.400 C 239.426 303.504,240.276 306.727,242.940 317.000 C 243.686 319.878,244.067 320.701,244.837 321.104 C 246.079 321.754,266.528 321.634,267.188 320.972 C 267.558 320.602,268.391 317.440,269.973 310.400 C 270.195 309.410,271.100 305.630,271.983 302.000 C 272.866 298.370,274.212 292.700,274.973 289.400 C 275.735 286.100,276.975 280.880,277.729 277.800 C 278.483 274.720,279.593 270.040,280.194 267.400 C 280.796 264.760,281.647 261.250,282.087 259.600 C 282.526 257.950,283.122 255.520,283.412 254.200 C 284.975 247.083,286.474 240.681,287.159 238.200 C 287.583 236.660,288.411 233.240,288.998 230.600 C 289.584 227.960,291.022 221.840,292.192 217.000 C 297.415 195.401,298.486 190.890,299.808 184.934 C 300.582 181.450,301.373 178.150,301.568 177.600 C 301.762 177.050,302.499 174.080,303.206 171.000 C 303.913 167.920,305.535 161.080,306.812 155.800 C 308.089 150.520,309.600 144.103,310.169 141.540 C 310.739 138.977,311.565 135.467,312.005 133.740 C 314.294 124.747,314.833 121.922,314.367 121.360 C 313.702 120.559,289.124 120.528,288.460 121.328 C 288.219 121.618,287.735 123.103,287.385 124.628 C 287.035 126.152,285.860 131.036,284.774 135.480 C 283.688 139.924,282.186 146.224,281.436 149.480 C 280.023 155.619,278.504 162.010,275.134 176.000 C 274.048 180.510,272.889 185.370,272.558 186.800 C 272.227 188.230,271.436 191.560,270.800 194.200 C 270.164 196.840,269.071 201.430,268.373 204.400 C 267.674 207.370,266.064 214.120,264.796 219.400 C 263.527 224.680,261.999 231.160,261.401 233.800 C 260.802 236.440,259.952 239.950,259.512 241.600 C 259.072 243.250,258.486 245.590,258.209 246.800 C 257.932 248.010,257.492 249.921,257.231 251.046 C 256.314 255.000,252.635 256.774,249.600 254.726 C 247.944 253.608,247.588 252.663,244.813 242.000 C 243.754 237.930,242.152 231.900,241.254 228.600 C 238.156 217.224,235.630 207.785,234.243 202.400 C 233.479 199.430,232.120 194.300,231.224 191.000 C 228.205 179.879,225.928 171.411,223.534 162.400 C 222.862 159.870,222.168 157.260,221.992 156.600 C 221.816 155.940,220.771 151.980,219.670 147.800 C 218.568 143.620,217.306 138.940,216.865 137.400 C 216.424 135.860,215.320 131.728,214.412 128.217 C 212.264 119.920,213.880 120.800,200.800 120.800 C 187.720 120.800,189.336 119.920,187.188 128.217 C 186.280 131.728,185.176 135.860,184.735 137.400 C 184.294 138.940,183.032 143.620,181.930 147.800 C 180.829 151.980,179.784 155.940,179.608 156.600 C 179.178 158.216,177.045 166.243,175.995 170.200 C 175.528 171.960,174.869 174.390,174.530 175.600 C 174.192 176.810,173.057 181.040,172.008 185.000 C 168.137 199.608,162.492 220.735,160.412 228.400 C 159.487 231.810,157.941 237.660,156.977 241.400 C 153.584 254.561,152.806 255.912,148.870 255.481 C 146.055 255.173,144.994 253.818,143.977 249.239 C 143.508 247.128,142.886 244.590,142.595 243.600 C 142.304 242.610,141.485 239.280,140.775 236.200 C 140.065 233.120,138.362 225.920,136.991 220.200 C 135.620 214.480,134.202 208.450,133.840 206.800 C 133.478 205.150,132.919 202.810,132.600 201.600 C 132.280 200.390,131.487 197.150,130.838 194.400 C 129.251 187.681,124.824 169.131,122.623 159.984 C 121.642 155.905,120.473 150.924,120.026 148.915 C 119.578 146.906,118.231 141.243,117.033 136.331 C 115.834 131.419,114.567 126.152,114.216 124.628 C 113.865 123.103,113.381 121.618,113.140 121.328 C 112.476 120.528,87.898 120.559,87.233 121.360 M112.729 121.900 C 112.926 122.285,113.486 124.310,113.974 126.400 C 115.131 131.357,118.368 144.923,120.799 155.000 C 121.860 159.400,123.200 165.070,123.776 167.600 C 124.353 170.130,125.173 173.550,125.599 175.200 C 126.025 176.850,126.940 180.630,127.632 183.600 C 128.893 189.011,130.594 196.156,135.157 215.200 C 136.501 220.810,138.314 228.460,139.186 232.200 C 144.405 254.589,144.307 254.296,147.104 255.651 C 151.843 257.944,153.735 255.857,156.576 245.200 C 159.291 235.017,160.353 231.090,161.607 226.600 C 162.221 224.400,163.293 220.350,163.990 217.600 C 165.115 213.155,165.893 210.258,167.213 205.600 C 167.651 204.055,170.822 192.117,172.982 183.879 C 174.261 179.004,175.167 175.619,176.001 172.600 C 176.183 171.940,176.783 169.690,177.334 167.600 C 179.274 160.235,180.469 155.764,181.398 152.400 C 181.915 150.530,182.908 146.840,183.605 144.200 C 184.870 139.407,185.449 137.236,186.622 132.900 C 186.964 131.635,187.704 128.800,188.267 126.600 C 189.809 120.565,188.339 121.200,200.765 121.200 C 212.200 121.200,212.094 121.182,212.488 123.200 C 212.595 123.750,213.451 127.080,214.390 130.600 C 215.329 134.120,216.863 139.880,217.800 143.400 C 219.854 151.115,223.832 166.017,224.395 168.100 C 224.618 168.925,225.001 170.365,225.246 171.300 C 225.492 172.235,225.837 173.450,226.013 174.000 C 226.190 174.550,226.914 177.250,227.622 180.000 C 229.774 188.360,233.956 204.125,234.360 205.400 C 234.568 206.060,235.378 209.030,236.160 212.000 C 246.920 252.902,247.151 253.674,249.033 255.154 C 250.561 256.356,252.354 256.572,254.311 255.789 C 257.238 254.618,256.829 255.853,263.179 229.000 C 266.326 215.690,268.466 206.707,270.851 196.800 C 271.937 192.290,273.370 186.260,274.035 183.400 C 274.701 180.540,275.589 176.850,276.010 175.200 C 276.430 173.550,277.334 169.770,278.019 166.800 C 278.704 163.830,280.134 157.800,281.195 153.400 C 283.287 144.730,286.210 132.459,287.626 126.400 C 288.114 124.310,288.674 122.285,288.871 121.900 C 289.378 120.906,313.476 120.812,313.857 121.803 C 314.055 122.321,313.294 126.171,311.999 131.200 C 311.800 131.970,311.276 134.130,310.835 136.000 C 309.521 141.557,308.149 147.310,306.063 156.000 C 304.318 163.267,301.902 173.446,298.991 185.800 C 297.051 194.031,295.916 198.778,294.400 205.000 C 292.830 211.443,291.041 218.910,289.562 225.200 C 289.122 227.070,288.504 229.680,288.187 231.000 C 287.871 232.320,287.082 235.650,286.435 238.400 C 284.683 245.837,282.536 254.885,280.548 263.200 C 276.048 282.023,274.884 286.913,273.601 292.400 C 272.907 295.370,271.536 301.130,270.556 305.200 C 269.575 309.270,268.499 313.770,268.165 315.200 C 267.832 316.630,267.380 318.478,267.162 319.306 L 266.766 320.813 255.700 320.706 L 244.633 320.600 243.122 315.000 C 240.580 305.579,240.043 303.570,238.792 298.800 C 236.325 289.393,232.306 274.347,230.457 267.600 C 229.825 265.290,228.724 261.150,228.010 258.400 C 227.297 255.650,226.393 252.230,226.000 250.800 C 225.607 249.370,224.700 245.950,223.984 243.200 C 223.267 240.450,221.827 235.050,220.782 231.200 C 219.738 227.350,218.391 222.310,217.788 220.000 C 217.185 217.690,216.007 213.280,215.169 210.200 C 214.331 207.120,212.361 199.740,210.792 193.800 C 205.109 172.293,205.318 172.895,203.160 171.780 C 200.930 170.626,197.988 171.338,196.669 173.350 C 195.995 174.380,195.566 175.874,190.806 193.800 C 185.539 213.640,183.165 222.538,180.988 230.600 C 179.801 235.000,178.382 240.310,177.835 242.400 C 177.289 244.490,176.576 247.190,176.251 248.400 C 174.587 254.595,173.932 257.052,172.625 262.000 C 171.841 264.970,170.832 268.750,170.383 270.400 C 169.934 272.050,168.950 275.740,168.196 278.600 C 167.442 281.460,166.457 285.150,166.006 286.800 C 165.556 288.450,164.478 292.500,163.612 295.800 C 162.117 301.495,161.624 303.348,160.179 308.700 C 159.838 309.965,159.016 313.062,158.353 315.581 C 157.689 318.101,157.058 320.306,156.950 320.481 C 156.841 320.657,151.820 320.800,145.792 320.800 L 134.831 320.800 134.430 319.300 C 134.209 318.475,133.746 316.540,133.399 315.000 C 133.053 313.460,131.980 308.960,131.015 305.000 C 130.050 301.040,128.693 295.370,127.999 292.400 C 127.304 289.430,126.112 284.390,125.349 281.200 C 124.587 278.010,123.710 274.320,123.401 273.000 C 123.092 271.680,122.042 267.270,121.067 263.200 C 120.093 259.130,118.723 253.370,118.022 250.400 C 117.321 247.430,116.227 242.840,115.591 240.200 C 114.956 237.560,114.058 233.780,113.596 231.800 C 111.851 224.309,108.799 211.501,106.020 200.000 C 104.930 195.490,103.508 189.550,102.860 186.800 C 98.821 169.666,97.683 164.875,95.739 156.800 C 94.547 151.850,93.121 145.910,92.570 143.600 C 92.019 141.290,91.224 137.960,90.803 136.200 C 90.382 134.440,89.470 130.615,88.776 127.700 C 88.082 124.786,87.618 122.131,87.745 121.800 C 88.124 120.812,112.223 120.908,112.729 121.900 M335.849 363.815 C 335.712 364.173,335.623 365.036,335.650 365.733 C 335.692 366.787,335.750 366.698,335.999 365.200 C 336.317 363.286,336.259 362.748,335.849 363.815 M65.204 365.516 C 65.190 367.364,70.300 373.230,71.876 373.175 C 72.520 373.152,72.511 373.113,71.800 372.820 C 70.138 372.136,67.059 368.975,66.146 367.015 C 65.630 365.907,65.206 365.232,65.204 365.516 M334.653 369.830 C 334.249 370.807,333.462 371.965,332.905 372.403 C 332.348 372.841,332.063 373.200,332.271 373.200 C 333.227 373.200,336.124 368.791,335.548 368.214 C 335.459 368.126,335.057 368.853,334.653 369.830 " stroke="none" fill="#9f9b6d" fill-rule="evenodd"></path><path id="path4" d="M74.349 59.865 C 73.853 60.467,73.884 60.486,74.674 60.065 C 75.888 59.419,86.471 59.431,87.120 60.080 C 87.468 60.428,87.600 63.339,87.600 70.668 C 87.600 82.123,87.648 82.339,90.894 85.464 C 92.555 87.063,97.896 89.521,96.775 88.170 C 96.515 87.857,95.986 87.600,95.600 87.600 C 93.406 87.600,90.291 85.124,88.796 82.192 C 88.063 80.754,88.000 79.824,88.000 70.395 C 88.000 62.968,87.868 60.028,87.520 59.680 C 86.699 58.859,75.044 59.023,74.349 59.865 M110.267 59.467 C 110.120 59.613,110.000 59.919,110.000 60.147 C 110.000 60.394,110.193 60.367,110.480 60.080 C 110.890 59.670,125.357 59.309,125.683 59.700 C 125.729 59.755,125.870 64.570,125.996 70.400 L 126.226 81.000 126.313 70.580 C 126.377 62.909,126.273 60.033,125.920 59.680 C 125.402 59.162,110.771 58.962,110.267 59.467 M148.900 59.465 C 148.516 59.620,148.421 61.906,148.489 69.333 L 148.578 79.000 148.789 69.400 L 149.000 59.800 201.600 59.690 C 230.530 59.630,254.602 59.678,255.093 59.796 C 255.986 60.012,255.987 60.020,256.100 70.506 L 256.214 81.000 256.307 70.343 C 256.389 60.938,256.326 59.657,255.767 59.443 C 255.010 59.152,149.621 59.174,148.900 59.465 M278.629 59.829 C 278.090 60.367,278.000 61.917,278.000 70.648 C 278.000 80.008,277.935 80.973,277.203 82.489 C 276.158 84.651,276.408 84.857,277.528 82.757 C 278.359 81.201,278.400 80.640,278.400 70.842 C 278.400 63.378,278.532 60.428,278.880 60.080 C 279.387 59.573,292.520 59.364,293.767 59.843 C 294.322 60.056,294.400 61.365,294.400 70.420 C 294.400 82.436,295.107 84.640,299.741 87.066 C 301.594 88.036,304.799 88.911,303.824 88.181 C 303.396 87.862,302.742 87.600,302.369 87.600 C 300.710 87.600,297.471 85.047,295.829 82.445 L 294.800 80.816 294.800 70.488 C 294.800 62.988,294.669 60.029,294.320 59.680 C 293.523 58.883,279.441 59.016,278.629 59.829 M317.200 59.591 C 316.696 59.909,316.581 61.677,316.481 70.606 C 316.372 80.378,316.297 81.358,315.562 82.668 C 315.121 83.453,314.827 84.161,314.909 84.242 C 314.990 84.324,315.489 83.627,316.017 82.695 C 316.946 81.055,316.984 80.656,317.188 70.400 L 317.400 59.800 323.306 59.689 C 326.957 59.621,329.554 59.744,330.106 60.011 C 330.966 60.428,330.970 60.420,330.224 59.822 C 329.328 59.105,318.280 58.909,317.200 59.591 M68.085 60.984 C 66.695 61.751,65.246 63.226,64.590 64.541 C 63.865 65.994,63.676 363.753,64.400 364.200 C 64.620 364.336,64.800 364.889,64.800 365.429 C 64.800 367.872,70.174 373.600,72.466 373.600 C 73.284 373.600,74.064 373.780,74.200 374.000 C 74.364 374.265,117.530 374.400,202.400 374.400 C 287.270 374.400,330.436 374.265,330.600 374.000 C 330.736 373.780,331.251 373.600,331.745 373.600 C 333.423 373.600,336.035 370.059,335.946 367.905 C 335.901 366.844,335.860 366.787,335.727 367.600 C 335.252 370.495,333.330 373.200,331.749 373.200 C 331.253 373.200,330.736 373.380,330.600 373.600 C 330.257 374.155,74.543 374.155,74.200 373.600 C 74.064 373.380,73.323 373.200,72.552 373.200 C 70.154 373.200,65.200 367.836,65.200 365.240 C 65.200 364.804,65.020 364.336,64.800 364.200 C 64.070 363.749,64.265 65.993,64.997 64.526 C 65.748 63.022,66.857 62.011,68.732 61.122 C 69.540 60.740,69.930 60.439,69.600 60.453 C 69.270 60.467,68.588 60.706,68.085 60.984 M334.711 61.023 C 335.200 61.365,335.621 62.040,335.646 62.523 C 335.685 63.243,335.726 63.270,335.881 62.670 C 336.078 61.911,334.992 60.400,334.249 60.400 C 334.014 60.400,334.222 60.680,334.711 61.023 M336.200 214.400 C 336.200 296.858,336.335 364.240,336.500 364.138 C 336.888 363.898,336.882 65.548,336.494 64.938 C 336.332 64.684,336.200 131.942,336.200 214.400 M109.549 80.000 C 109.424 80.770,109.193 81.760,109.035 82.200 C 108.878 82.640,109.042 82.495,109.399 81.878 C 109.756 81.261,109.987 80.271,109.912 79.678 C 109.788 78.693,109.756 78.721,109.549 80.000 M147.477 82.086 C 146.401 84.337,142.499 87.600,140.882 87.600 C 140.481 87.600,139.804 87.865,139.376 88.188 C 138.517 88.839,140.043 88.446,142.600 87.358 C 144.437 86.576,148.887 81.554,148.280 80.947 C 148.184 80.850,147.822 81.363,147.477 82.086 M126.868 82.200 C 127.895 84.766,130.518 86.949,134.052 88.180 C 136.283 88.957,136.926 88.965,135.454 88.198 C 134.824 87.869,134.065 87.600,133.766 87.600 C 132.350 87.600,127.600 84.055,127.600 82.998 C 127.600 82.753,127.327 82.204,126.993 81.776 C 126.435 81.062,126.425 81.096,126.868 82.200 M257.200 83.014 C 257.200 84.109,261.304 87.323,263.577 88.008 C 264.139 88.178,264.960 88.440,265.400 88.591 C 266.189 88.861,266.189 88.856,265.424 88.233 C 264.996 87.885,264.349 87.600,263.985 87.600 C 262.843 87.600,260.896 86.422,259.013 84.592 C 258.016 83.623,257.200 82.913,257.200 83.014 M106.981 84.820 C 105.330 86.512,103.542 87.600,102.415 87.600 C 102.051 87.600,101.404 87.865,100.976 88.188 C 100.118 88.838,101.638 88.447,104.200 87.358 C 105.238 86.918,109.318 83.200,108.764 83.200 C 108.653 83.200,107.851 83.929,106.981 84.820 M274.407 85.792 C 273.801 86.522,271.700 87.595,270.839 87.614 C 270.487 87.622,269.750 87.904,269.200 88.242 C 268.530 88.653,268.464 88.765,269.000 88.582 C 269.440 88.431,270.344 88.177,271.009 88.016 C 272.799 87.585,276.272 85.200,275.111 85.200 C 274.994 85.200,274.677 85.466,274.407 85.792 M311.400 86.800 C 310.740 87.208,309.840 87.561,309.400 87.585 C 308.960 87.609,308.150 87.904,307.600 88.242 C 307.050 88.579,306.904 88.763,307.275 88.650 C 307.646 88.537,308.664 88.252,309.537 88.017 C 310.410 87.782,311.546 87.238,312.062 86.808 C 313.231 85.834,312.968 85.831,311.400 86.800 M78.583 112.345 C 76.423 113.663,75.174 116.954,76.354 118.220 C 76.688 118.578,77.189 120.553,80.558 134.800 C 83.828 148.628,84.605 151.884,86.665 160.375 C 87.863 165.311,89.093 170.531,89.399 171.975 C 89.704 173.419,90.937 178.650,92.139 183.600 C 96.375 201.058,98.477 209.847,99.455 214.200 C 99.999 216.620,101.314 222.200,102.378 226.600 C 107.032 245.845,110.422 260.071,113.626 273.800 C 114.293 276.660,115.546 281.880,116.410 285.400 C 118.409 293.547,121.909 308.364,124.205 318.400 C 127.286 331.870,125.422 330.800,145.800 330.800 C 165.838 330.800,164.245 331.552,166.973 320.800 C 167.782 317.610,169.230 312.120,170.190 308.600 C 171.151 305.080,172.511 300.040,173.212 297.400 C 173.914 294.760,174.636 292.060,174.817 291.400 C 174.997 290.740,176.047 286.780,177.150 282.600 C 178.253 278.420,179.430 274.010,179.766 272.800 C 180.102 271.590,181.112 267.720,182.012 264.200 C 182.911 260.680,184.077 256.360,184.602 254.600 C 185.127 252.840,186.375 248.250,187.376 244.400 C 191.110 230.032,193.640 220.477,194.790 216.400 C 195.442 214.090,196.701 209.392,197.588 205.960 C 200.827 193.425,200.790 193.420,204.239 206.800 C 205.232 210.650,206.468 215.240,206.988 217.000 C 207.507 218.760,208.498 222.450,209.189 225.200 C 210.457 230.241,212.886 239.379,215.993 250.800 C 216.921 254.210,218.458 259.970,219.409 263.600 C 220.359 267.230,221.436 271.280,221.800 272.600 C 222.165 273.920,223.336 278.330,224.402 282.400 C 225.469 286.470,226.900 291.870,227.584 294.400 C 231.739 309.783,233.725 317.200,234.924 321.802 C 237.440 331.467,235.892 330.800,255.800 330.800 C 276.178 330.800,274.314 331.870,277.395 318.400 C 280.168 306.277,283.515 292.106,284.386 288.800 C 284.820 287.150,286.077 281.930,287.177 277.200 C 290.110 264.601,292.839 253.142,299.562 225.200 C 300.859 219.810,302.045 214.770,302.198 214.000 C 302.351 213.230,303.520 208.280,304.796 203.000 C 306.072 197.720,308.312 188.360,309.774 182.200 C 311.237 176.040,313.408 166.950,314.599 162.000 C 315.791 157.050,317.313 150.660,317.982 147.800 C 318.651 144.940,319.741 140.350,320.405 137.600 C 321.069 134.850,322.152 130.260,322.813 127.400 C 324.343 120.777,324.956 118.511,325.314 118.153 C 325.897 117.570,325.574 115.087,324.768 113.956 C 323.065 111.563,323.408 111.600,302.720 111.601 C 279.454 111.603,281.321 111.055,279.600 118.400 C 279.110 120.490,277.757 126.160,276.593 131.000 C 272.788 146.821,270.858 154.923,269.781 159.600 C 269.198 162.130,267.762 168.160,266.590 173.000 C 264.543 181.457,261.679 193.501,259.410 203.200 C 258.818 205.730,257.463 211.400,256.400 215.800 C 255.336 220.200,254.071 225.465,253.588 227.500 C 252.178 233.443,251.751 232.986,249.008 222.600 C 247.962 218.640,246.329 212.610,245.379 209.200 C 244.429 205.790,243.090 200.750,242.403 198.000 C 241.717 195.250,240.825 191.830,240.421 190.400 C 240.016 188.970,239.226 186.090,238.665 184.000 C 237.225 178.637,231.962 158.928,229.371 149.200 C 228.170 144.690,226.461 138.300,225.574 135.000 C 224.686 131.700,223.145 125.850,222.148 122.000 C 219.217 110.671,221.123 111.600,200.800 111.600 C 180.528 111.600,182.378 110.726,179.619 121.600 C 178.697 125.230,177.783 128.650,177.587 129.200 C 177.391 129.750,176.575 132.720,175.774 135.800 C 174.972 138.880,173.448 144.640,172.387 148.600 C 171.325 152.560,168.901 161.650,167.000 168.800 C 165.099 175.950,162.853 184.320,162.010 187.400 C 161.167 190.480,159.999 194.890,159.415 197.200 C 158.831 199.510,157.469 204.640,156.389 208.600 C 155.309 212.560,153.607 218.860,152.608 222.600 C 149.829 232.997,149.419 233.433,148.012 227.500 C 147.529 225.465,146.241 220.142,145.151 215.670 C 144.060 211.199,142.629 205.169,141.972 202.270 C 140.724 196.768,138.980 189.417,135.406 174.600 C 134.238 169.760,132.715 163.370,132.020 160.400 C 131.325 157.430,129.944 151.580,128.951 147.400 C 127.957 143.220,126.614 137.550,125.965 134.800 C 125.316 132.050,124.605 129.170,124.385 128.400 C 124.165 127.630,123.457 124.656,122.812 121.792 C 121.162 114.464,120.821 113.578,119.241 112.515 L 117.882 111.600 98.841 111.601 C 81.000 111.603,79.723 111.650,78.583 112.345 M118.903 112.948 C 119.663 113.464,120.178 114.332,120.561 115.748 C 121.136 117.871,124.130 130.282,125.592 136.600 C 126.050 138.580,126.596 140.830,126.805 141.600 C 127.444 143.953,129.124 150.839,129.782 153.800 C 130.124 155.340,131.144 159.750,132.049 163.600 C 132.954 167.450,134.308 173.210,135.057 176.400 C 135.807 179.590,137.304 185.800,138.385 190.200 C 139.465 194.600,140.654 199.550,141.027 201.200 C 141.400 202.850,142.650 208.160,143.806 213.000 C 144.961 217.840,146.399 223.960,147.000 226.600 C 148.606 233.652,149.901 234.464,151.465 229.400 C 152.762 225.202,156.578 211.132,157.594 206.800 C 157.775 206.030,158.223 204.320,158.591 203.000 C 158.958 201.680,159.704 198.890,160.250 196.800 C 161.342 192.611,162.878 186.914,164.078 182.600 C 164.506 181.060,165.379 177.820,166.019 175.400 C 166.658 172.980,167.452 170.010,167.784 168.800 C 168.116 167.590,169.121 163.720,170.018 160.200 C 170.914 156.680,172.424 151.010,173.374 147.600 C 174.324 144.190,175.683 139.150,176.395 136.400 C 177.106 133.650,177.919 130.680,178.202 129.800 C 178.484 128.920,179.466 125.230,180.385 121.600 C 183.014 111.217,181.348 112.000,200.800 112.000 C 220.372 112.000,218.490 111.038,221.528 122.600 C 222.627 126.780,223.902 131.595,224.363 133.300 C 224.823 135.005,225.548 137.705,225.973 139.300 C 226.399 140.895,227.124 143.550,227.585 145.200 C 228.046 146.850,229.386 151.890,230.562 156.400 C 231.739 160.910,233.190 166.400,233.789 168.600 C 234.387 170.800,235.296 174.220,235.809 176.200 C 236.323 178.180,237.221 181.510,237.805 183.600 C 239.046 188.041,239.515 189.783,241.140 196.000 C 241.801 198.530,242.642 201.680,243.010 203.000 C 243.377 204.320,243.827 206.030,244.009 206.800 C 244.434 208.593,248.088 222.248,248.986 225.400 C 249.362 226.720,249.840 228.498,250.048 229.352 C 250.586 231.554,251.118 232.400,251.965 232.400 C 253.156 232.400,253.429 231.729,254.980 225.000 C 255.792 221.480,257.338 214.910,258.417 210.400 C 259.495 205.890,260.555 201.390,260.772 200.400 C 260.989 199.410,262.326 193.830,263.742 188.000 C 267.919 170.811,269.992 162.081,271.008 157.400 C 271.533 154.980,272.680 150.120,273.555 146.600 C 275.195 140.009,276.464 134.748,279.008 124.000 C 281.319 114.234,281.471 113.779,282.697 112.948 C 284.262 111.887,319.151 111.568,321.830 112.590 C 323.657 113.288,325.395 115.739,324.816 116.802 C 324.413 117.542,323.355 121.661,321.167 131.000 C 320.240 134.960,319.225 139.280,318.913 140.600 C 318.600 141.920,318.200 143.630,318.024 144.400 C 317.847 145.170,317.024 148.680,316.195 152.200 C 315.366 155.720,314.454 159.590,314.169 160.800 C 313.884 162.010,313.010 165.610,312.227 168.800 C 310.767 174.745,307.432 188.787,305.197 198.400 C 304.506 201.370,303.138 207.089,302.157 211.109 C 301.175 215.129,300.190 219.269,299.967 220.309 C 299.744 221.349,299.408 222.830,299.220 223.600 C 299.033 224.370,298.308 227.340,297.610 230.200 C 295.924 237.098,294.341 243.771,290.585 259.800 C 290.018 262.220,288.656 267.890,287.558 272.400 C 286.460 276.910,285.221 282.040,284.803 283.800 C 284.386 285.560,283.567 288.980,282.983 291.400 C 281.642 296.958,279.632 305.706,279.215 307.800 C 279.039 308.680,278.343 311.560,277.666 314.200 C 276.990 316.840,275.934 321.064,275.318 323.587 C 273.634 330.495,275.130 330.000,255.921 330.000 C 236.196 330.000,238.018 330.739,235.642 321.774 C 234.771 318.488,233.576 314.000,232.987 311.800 C 232.397 309.600,231.239 305.190,230.412 302.000 C 229.585 298.810,228.071 293.140,227.048 289.400 C 223.529 276.539,218.254 256.752,217.610 254.000 C 217.430 253.230,216.914 251.250,216.465 249.600 C 216.015 247.950,215.181 244.890,214.610 242.800 C 212.889 236.492,212.007 233.215,210.788 228.600 C 210.149 226.180,209.073 222.130,208.398 219.600 C 207.722 217.070,206.451 212.210,205.574 208.800 C 202.181 195.613,201.635 194.321,200.056 195.749 C 199.632 196.133,199.199 196.842,199.094 197.324 C 198.990 197.806,198.507 199.640,198.023 201.400 C 197.538 203.160,196.533 206.940,195.791 209.800 C 195.048 212.660,193.914 216.980,193.270 219.400 C 192.626 221.820,191.437 226.320,190.626 229.400 C 189.815 232.480,188.717 236.530,188.186 238.400 C 187.122 242.149,184.530 251.800,183.997 254.000 C 183.810 254.770,183.032 257.740,182.267 260.600 C 181.502 263.460,180.114 268.680,179.182 272.200 C 178.250 275.720,176.813 281.120,175.987 284.200 C 175.162 287.280,173.556 293.310,172.419 297.600 C 171.281 301.890,170.022 306.570,169.620 308.000 C 169.218 309.430,168.309 312.850,167.601 315.600 C 163.443 331.741,166.079 330.000,145.800 330.000 C 125.321 330.000,128.352 332.288,123.807 313.400 C 123.013 310.100,122.198 306.770,121.995 306.000 C 121.793 305.230,121.249 302.890,120.786 300.800 C 120.323 298.710,119.407 294.750,118.750 292.000 C 118.094 289.250,117.215 285.560,116.798 283.800 C 116.380 282.040,115.214 277.180,114.205 273.000 C 110.751 258.682,110.429 257.327,106.371 240.000 C 105.675 237.030,104.569 232.440,103.912 229.800 C 103.256 227.160,102.564 224.280,102.374 223.400 C 102.184 222.520,100.936 217.300,99.599 211.800 C 98.262 206.300,96.561 199.100,95.818 195.800 C 95.075 192.500,93.662 186.470,92.678 182.400 C 91.694 178.330,90.315 172.570,89.612 169.600 C 88.910 166.630,88.175 163.660,87.978 163.000 C 87.781 162.340,87.147 159.730,86.569 157.200 C 85.268 151.505,84.066 146.365,82.221 138.600 C 78.376 122.420,77.126 117.410,76.770 116.743 C 76.218 115.712,77.821 113.377,79.600 112.620 C 81.960 111.617,117.376 111.912,118.903 112.948 M86.790 120.728 L 85.852 121.487 87.911 129.843 C 89.044 134.440,90.497 140.450,91.141 143.200 C 91.785 145.950,93.155 151.800,94.185 156.200 C 95.215 160.600,96.927 167.800,97.989 172.200 C 99.051 176.600,100.671 183.350,101.587 187.200 C 102.504 191.050,103.413 194.740,103.606 195.400 C 103.800 196.060,104.520 199.120,105.207 202.200 C 106.537 208.163,108.467 216.376,109.391 220.000 C 110.293 223.541,113.937 238.824,115.638 246.200 C 117.453 254.074,118.602 258.895,119.402 262.000 C 119.714 263.210,120.619 267.080,121.414 270.600 C 122.208 274.120,123.092 277.810,123.377 278.800 C 123.662 279.790,124.094 281.500,124.338 282.600 C 125.173 286.383,126.426 291.802,126.787 293.200 C 126.987 293.970,127.365 295.500,127.627 296.600 C 127.890 297.700,128.331 299.410,128.608 300.400 C 128.884 301.390,129.303 303.100,129.539 304.200 C 131.780 314.652,133.305 320.636,133.898 321.300 C 134.709 322.207,157.179 322.389,157.921 321.495 C 158.152 321.217,159.154 317.842,160.150 313.995 C 161.145 310.148,162.236 306.010,162.574 304.800 C 164.149 299.161,166.300 291.195,167.595 286.200 C 167.766 285.540,168.301 283.560,168.783 281.800 C 169.265 280.040,170.445 275.540,171.404 271.800 C 173.065 265.325,173.564 263.442,174.955 258.400 C 176.630 252.326,178.566 245.125,180.170 239.000 C 181.888 232.441,182.477 230.239,183.831 225.300 C 184.539 222.717,187.080 212.948,187.602 210.800 C 187.789 210.030,188.736 206.520,189.705 203.000 C 190.675 199.480,191.678 195.790,191.935 194.800 C 197.068 175.033,197.655 173.366,199.741 172.623 C 202.601 171.604,204.034 173.440,205.833 180.429 C 206.593 183.383,207.837 188.050,208.597 190.800 C 209.357 193.550,210.416 197.510,210.952 199.600 C 211.487 201.690,212.309 204.750,212.779 206.400 C 213.655 209.475,215.183 215.218,217.197 223.000 C 217.823 225.420,218.631 228.480,218.992 229.800 C 219.353 231.120,220.450 235.260,221.430 239.000 C 222.409 242.740,223.491 246.790,223.834 248.000 C 224.177 249.210,224.786 251.460,225.187 253.000 C 225.588 254.540,226.205 256.835,226.558 258.100 C 228.578 265.341,230.737 273.458,231.053 275.000 C 231.266 276.044,232.779 281.726,234.566 288.200 C 236.692 295.901,239.137 305.042,241.040 312.397 C 242.262 317.125,243.451 321.220,243.680 321.497 C 243.998 321.880,246.847 322.000,255.587 322.000 C 268.850 322.000,268.072 322.235,269.005 317.939 C 269.535 315.499,271.421 307.213,272.587 302.200 C 273.233 299.422,274.268 295.219,274.803 293.200 C 275.163 291.843,276.360 286.685,277.262 282.600 C 277.506 281.500,277.938 279.790,278.223 278.800 C 278.508 277.810,279.392 274.120,280.186 270.600 C 280.981 267.080,281.890 263.210,282.206 262.000 C 282.522 260.790,283.306 257.550,283.948 254.800 C 287.941 237.697,291.601 222.377,293.219 216.000 C 293.560 214.655,294.283 211.557,296.582 201.600 C 297.166 199.070,298.516 193.400,299.583 189.000 C 301.298 181.924,305.069 166.115,307.215 157.000 C 307.629 155.240,308.524 151.460,309.202 148.600 C 309.880 145.740,310.684 142.320,310.987 141.000 C 311.290 139.680,312.488 134.752,313.650 130.049 L 315.762 121.498 314.836 120.749 C 313.796 119.907,290.749 119.583,288.650 120.381 C 287.522 120.810,287.403 121.141,285.558 129.000 C 284.168 134.921,284.303 134.340,281.832 145.000 C 279.823 153.663,277.408 163.759,276.809 166.000 C 276.603 166.770,276.070 168.930,275.625 170.800 C 275.180 172.670,273.932 177.890,272.851 182.400 C 271.770 186.910,270.409 192.670,269.825 195.200 C 269.242 197.730,268.330 201.600,267.799 203.800 C 267.269 206.000,266.112 210.950,265.229 214.800 C 264.346 218.650,263.366 222.700,263.050 223.800 C 262.734 224.900,261.908 228.320,261.216 231.400 C 260.061 236.537,259.355 239.460,258.367 243.200 C 258.163 243.970,257.556 246.476,257.018 248.770 C 255.936 253.375,255.318 254.301,253.083 254.664 C 250.211 255.130,248.535 253.738,247.638 250.142 C 246.190 244.333,244.010 236.083,242.554 230.900 C 242.199 229.635,241.756 227.880,241.570 227.000 C 241.384 226.120,240.496 222.790,239.596 219.600 C 238.696 216.410,237.272 211.190,236.431 208.000 C 235.590 204.810,234.351 200.130,233.679 197.600 C 233.006 195.070,231.543 189.490,230.428 185.200 C 229.313 180.910,228.235 176.950,228.033 176.400 C 227.831 175.850,227.091 173.150,226.389 170.400 C 225.687 167.650,224.603 163.600,223.980 161.400 C 223.357 159.200,221.924 153.800,220.796 149.400 C 219.667 145.000,218.388 140.140,217.953 138.600 C 217.518 137.060,216.559 133.460,215.823 130.600 C 212.791 118.829,214.450 120.000,200.800 120.000 C 187.150 120.000,188.809 118.829,185.777 130.600 C 185.041 133.460,184.082 137.060,183.647 138.600 C 183.211 140.140,181.852 145.270,180.627 150.000 C 179.401 154.730,178.027 159.950,177.573 161.600 C 177.119 163.250,176.399 165.905,175.973 167.500 C 175.548 169.095,174.822 171.795,174.360 173.500 C 171.760 183.099,169.073 193.180,168.789 194.400 C 168.610 195.170,167.835 198.140,167.065 201.000 C 166.296 203.860,165.209 207.910,164.650 210.000 C 164.091 212.090,163.175 215.420,162.614 217.400 C 162.053 219.380,161.162 222.710,160.632 224.800 C 160.103 226.890,159.385 229.635,159.035 230.900 C 157.533 236.338,157.064 238.089,155.739 243.200 C 154.969 246.170,154.203 249.230,154.037 250.000 C 153.277 253.527,151.381 255.129,148.517 254.664 C 146.330 254.309,145.738 253.420,144.612 248.800 C 144.049 246.490,143.426 243.970,143.226 243.200 C 142.159 239.082,141.531 236.474,140.385 231.400 C 139.689 228.320,138.799 224.630,138.407 223.200 C 138.015 221.770,137.206 218.440,136.610 215.800 C 136.013 213.160,134.921 208.480,134.183 205.400 C 133.444 202.320,132.449 198.090,131.971 196.000 C 130.704 190.463,127.162 175.685,123.437 160.400 C 122.445 156.330,120.993 150.120,120.210 146.600 C 119.426 143.080,118.504 139.120,118.161 137.800 C 117.173 134.003,116.913 132.940,115.543 127.075 C 114.833 124.037,114.030 121.247,113.759 120.875 C 112.949 119.767,88.144 119.632,86.790 120.728 M113.140 121.328 C 113.381 121.618,113.865 123.103,114.216 124.628 C 114.567 126.152,115.834 131.419,117.033 136.331 C 118.231 141.243,119.578 146.906,120.026 148.915 C 120.473 150.924,121.642 155.905,122.623 159.984 C 124.824 169.131,129.251 187.681,130.838 194.400 C 131.487 197.150,132.280 200.390,132.600 201.600 C 132.919 202.810,133.478 205.150,133.840 206.800 C 134.202 208.450,135.620 214.480,136.991 220.200 C 138.362 225.920,140.065 233.120,140.775 236.200 C 141.485 239.280,142.304 242.610,142.595 243.600 C 142.886 244.590,143.508 247.128,143.977 249.239 C 144.994 253.818,146.055 255.173,148.870 255.481 C 152.806 255.912,153.584 254.561,156.977 241.400 C 157.941 237.660,159.487 231.810,160.412 228.400 C 162.492 220.735,168.137 199.608,172.008 185.000 C 173.057 181.040,174.192 176.810,174.530 175.600 C 174.869 174.390,175.528 171.960,175.995 170.200 C 177.045 166.243,179.178 158.216,179.608 156.600 C 179.784 155.940,180.829 151.980,181.930 147.800 C 183.032 143.620,184.294 138.940,184.735 137.400 C 185.176 135.860,186.280 131.728,187.188 128.217 C 189.336 119.920,187.720 120.800,200.800 120.800 C 213.880 120.800,212.264 119.920,214.412 128.217 C 215.320 131.728,216.424 135.860,216.865 137.400 C 217.306 138.940,218.568 143.620,219.670 147.800 C 220.771 151.980,221.816 155.940,221.992 156.600 C 222.168 157.260,222.862 159.870,223.534 162.400 C 225.928 171.411,228.205 179.879,231.224 191.000 C 232.120 194.300,233.479 199.430,234.243 202.400 C 235.630 207.785,238.156 217.224,241.254 228.600 C 242.152 231.900,243.754 237.930,244.813 242.000 C 247.588 252.663,247.944 253.608,249.600 254.726 C 252.635 256.774,256.314 255.000,257.231 251.046 C 257.492 249.921,257.932 248.010,258.209 246.800 C 258.486 245.590,259.072 243.250,259.512 241.600 C 259.952 239.950,260.802 236.440,261.401 233.800 C 261.999 231.160,263.527 224.680,264.796 219.400 C 266.064 214.120,267.674 207.370,268.373 204.400 C 269.071 201.430,270.164 196.840,270.800 194.200 C 271.436 191.560,272.227 188.230,272.558 186.800 C 272.889 185.370,274.048 180.510,275.134 176.000 C 278.504 162.010,280.023 155.619,281.436 149.480 C 282.186 146.224,283.688 139.924,284.774 135.480 C 285.860 131.036,287.035 126.152,287.385 124.628 C 287.735 123.103,288.219 121.618,288.460 121.328 C 289.124 120.528,313.702 120.559,314.367 121.360 C 314.833 121.922,314.294 124.747,312.005 133.740 C 311.565 135.467,310.739 138.977,310.169 141.540 C 309.600 144.103,308.089 150.520,306.812 155.800 C 305.535 161.080,303.913 167.920,303.206 171.000 C 302.499 174.080,301.762 177.050,301.568 177.600 C 301.373 178.150,300.582 181.450,299.808 184.934 C 298.486 190.890,297.415 195.401,292.192 217.000 C 291.022 221.840,289.584 227.960,288.998 230.600 C 288.411 233.240,287.583 236.660,287.159 238.200 C 286.474 240.681,284.975 247.083,283.412 254.200 C 283.122 255.520,282.526 257.950,282.087 259.600 C 281.647 261.250,280.796 264.760,280.194 267.400 C 279.593 270.040,278.483 274.720,277.729 277.800 C 276.975 280.880,275.735 286.100,274.973 289.400 C 274.212 292.700,272.866 298.370,271.983 302.000 C 271.100 305.630,270.195 309.410,269.973 310.400 C 268.391 317.440,267.558 320.602,267.188 320.972 C 266.528 321.634,246.079 321.754,244.837 321.104 C 244.067 320.701,243.686 319.878,242.940 317.000 C 240.276 306.727,239.426 303.504,238.560 300.400 C 238.039 298.530,236.347 292.230,234.800 286.400 C 233.254 280.570,231.256 273.100,230.362 269.800 C 229.467 266.500,228.018 261.010,227.141 257.600 C 226.264 254.190,225.186 250.140,224.744 248.600 C 224.303 247.060,223.070 242.470,222.006 238.400 C 220.941 234.330,219.768 229.920,219.397 228.600 C 219.027 227.280,217.951 223.230,217.006 219.600 C 216.060 215.970,214.984 211.920,214.615 210.600 C 214.245 209.280,213.236 205.500,212.372 202.200 C 211.508 198.900,210.353 194.580,209.804 192.600 C 209.255 190.620,207.989 185.874,206.990 182.054 C 204.626 173.018,203.787 171.600,200.800 171.600 C 197.819 171.600,197.024 172.940,194.636 182.003 C 193.622 185.851,192.344 190.620,191.797 192.600 C 191.250 194.580,190.158 198.720,189.371 201.800 C 188.583 204.880,187.516 208.840,186.999 210.600 C 186.482 212.360,185.218 217.040,184.190 221.000 C 182.263 228.427,182.123 228.956,181.007 233.000 C 180.643 234.320,179.738 237.740,178.997 240.600 C 178.256 243.460,177.089 247.870,176.405 250.400 C 175.720 252.930,173.891 259.770,172.341 265.600 C 168.025 281.829,164.581 294.708,162.565 302.145 C 161.560 305.855,160.105 311.435,159.332 314.545 C 157.407 322.286,158.640 321.662,145.553 321.518 C 138.633 321.442,134.687 321.248,134.412 320.972 C 134.042 320.602,133.214 317.460,131.627 310.400 C 131.404 309.410,130.481 305.540,129.576 301.800 C 128.670 298.060,127.329 292.390,126.595 289.200 C 125.861 286.010,124.727 281.240,124.076 278.600 C 123.424 275.960,122.495 272.090,122.011 270.000 C 121.528 267.910,120.345 262.960,119.384 259.000 C 118.423 255.040,117.086 249.370,116.414 246.400 C 115.742 243.430,114.913 239.920,114.571 238.600 C 114.229 237.280,113.347 233.590,112.610 230.400 C 111.874 227.210,110.541 221.630,109.649 218.000 C 108.758 214.370,107.310 208.340,106.433 204.600 C 103.573 192.402,98.351 170.521,94.978 156.600 C 92.868 147.892,90.252 136.612,89.568 133.273 C 89.373 132.324,89.132 131.414,89.032 131.251 C 88.317 130.095,86.819 121.859,87.233 121.360 C 87.898 120.559,112.476 120.528,113.140 121.328 " stroke="none" fill="#747459" fill-rule="evenodd"></path></g></svg>